<svg width="121" height="79" viewBox="0 0 121 79" fill="none" xmlns="http://www.w3.org/2000/svg">
<path fill-rule="evenodd" clip-rule="evenodd" d="M48.7395 51.9148C56.1791 51.9148 62.215 57.9496 62.215 65.391C62.215 72.8324 56.1791 78.8638 48.7395 78.8638C41.2967 78.8638 35.2607 72.8324 35.2607 65.391C35.2607 57.9496 41.2967 51.9148 48.7395 51.9148ZM54.7046 59.4237C53.1695 57.9125 51.0642 56.968 48.7395 56.968C46.4048 56.968 44.2927 57.9057 42.7711 59.4237C41.2528 60.9451 40.3148 63.0567 40.3148 65.391C40.3148 67.7152 41.2562 69.8201 42.7812 71.3448C44.2927 72.8729 46.4048 73.8107 48.7395 73.8107C51.0642 73.8107 53.1695 72.8662 54.6945 71.3448C56.2162 69.8201 57.1609 67.7152 57.1609 65.391C57.1609 63.0567 56.2229 60.9451 54.7046 59.4237Z" fill="#32CB72"/>
<path fill-rule="evenodd" clip-rule="evenodd" d="M71.8645 0C79.3074 0 85.3434 6.03477 85.3434 13.4762C85.3434 20.9176 79.3074 26.949 71.8645 26.949C64.4216 26.949 58.3857 20.9176 58.3857 13.4762C58.3857 6.03477 64.4216 0 71.8645 0ZM77.8296 7.50888C76.2979 5.99766 74.1891 5.05315 71.8645 5.05315C69.5297 5.05315 67.4211 5.99091 65.8994 7.50888C64.3778 9.03022 63.4398 11.1419 63.4398 13.4762C63.4398 15.8004 64.3845 17.9053 65.9062 19.43C67.421 20.9581 69.5297 21.8958 71.8645 21.8958C74.1891 21.8958 76.2979 20.9513 77.8195 19.43C79.3445 17.9053 80.2858 15.8004 80.2858 13.4762C80.2858 11.1419 79.3479 9.03022 77.8296 7.50888Z" fill="#32CB72"/>
<path fill-rule="evenodd" clip-rule="evenodd" d="M23.5804 56.4718C25.679 58.8466 26.9577 61.9702 26.9577 65.3907C26.9577 72.8321 20.9217 78.8635 13.4788 78.8635C6.03596 78.8635 0 72.8321 0 65.3907C0 57.9897 5.97186 51.982 13.354 51.9145L26.5056 22.3951C24.407 20.0169 23.1283 16.8967 23.1283 13.4762C23.1283 6.03477 29.1642 0 36.6071 0C44.05 0 50.086 6.03477 50.086 13.4762C50.086 20.8737 44.1175 26.8815 36.7353 26.949L23.5804 56.4718Z" fill="#32CB72"/>
<path fill-rule="evenodd" clip-rule="evenodd" d="M94.0953 56.4718C96.1939 58.8466 97.4693 61.9702 97.4693 65.3907C97.4693 72.8321 91.4367 78.8635 83.9938 78.8635C76.5509 78.8635 70.5149 72.8321 70.5149 65.3907C70.5149 57.9897 76.4834 51.982 83.8689 51.9145L97.0205 22.3917C94.9186 20.0169 93.6432 16.8967 93.6432 13.4762C93.6432 6.03477 99.6792 0 107.122 0C114.565 0 120.601 6.03477 120.601 13.4762C120.601 20.8737 114.629 26.8815 107.247 26.949L94.0953 56.4718Z" fill="#32CB72"/>
</svg>
